<svg width="20" height="20" viewBox="0 0 20 20" fill="none" xmlns="http://www.w3.org/2000/svg">
<path d="M9.99875 0.20813C4.4775 0.20813 0 4.70312 0 10.2481C0 14.6831 2.865 18.4456 6.84 19.7743C7.34 19.8668 7.5225 19.5568 7.5225 19.2906C7.5225 19.0518 7.51375 18.4206 7.50875 17.5831C4.7275 18.1893 4.14 16.2368 4.14 16.2368C3.68625 15.0768 3.03 14.7681 3.03 14.7681C2.12125 14.1456 3.0975 14.1581 3.0975 14.1581C4.10125 14.2293 4.62875 15.1931 4.62875 15.1931C5.52125 16.7268 6.97 16.2843 7.54 16.0268C7.63 15.3781 7.88875 14.9356 8.175 14.6843C5.955 14.4306 3.62 13.5693 3.62 9.72312C3.62 8.62687 4.01 7.73062 4.65 7.02812C4.54625 6.77437 4.20375 5.75312 4.7475 4.37187C4.7475 4.37187 5.5875 4.10187 7.4975 5.40062C8.295 5.17812 9.15 5.06687 10.0013 5.06312C10.85 5.06812 11.7062 5.17812 12.505 5.40187C14.4137 4.10312 15.2525 4.37312 15.2525 4.37312C15.7975 5.75562 15.455 6.77562 15.3525 7.02937C15.9937 7.73187 16.38 8.62812 16.38 9.72437C16.38 13.5806 14.0425 14.4293 11.815 14.6781C12.1737 14.9881 12.4937 15.6006 12.4937 16.5368C12.4937 17.8793 12.4812 18.9618 12.4812 19.2906C12.4812 19.5593 12.6613 19.8718 13.1687 19.7731C17.1375 18.4431 20 14.6818 20 10.2481C20 4.70312 15.5225 0.20813 9.99875 0.20813Z" fill="#C4C4CC"/>
</svg>
